<svg width="44" height="44" viewBox="0 0 44 44" fill="none" xmlns="http://www.w3.org/2000/svg">
<mask id="path-1-inside-1_42_198" fill="white">
<path d="M21.8154 9C32.2069 9.00001 40.6309 17.424 40.6309 27.8154C40.6309 29.5211 40.4035 31.1737 39.9779 32.7447C39.4692 34.6223 37.6415 35.7373 35.6962 35.7373H7.93465C5.98934 35.7373 4.1617 34.6223 3.65297 32.7447C3.22731 31.1737 3 29.5211 3 27.8154C3 17.424 11.424 9 21.8154 9Z"/>
</mask>
<path d="M21.8154 9L21.8154 6H21.8154V9ZM40.6309 27.8154L43.6309 27.8154V27.8154H40.6309ZM3 27.8154H0V27.8154L3 27.8154ZM21.8154 9L21.8154 12C30.55 12 37.6309 19.0808 37.6309 27.8154H40.6309H43.6309C43.6309 15.7671 33.8637 6.00001 21.8154 6L21.8154 9ZM40.6309 27.8154L37.6309 27.8154C37.6309 29.2535 37.4394 30.6423 37.0823 31.9602L39.9779 32.7447L42.8735 33.5293C43.3677 31.7051 43.6309 29.7888 43.6309 27.8154L40.6309 27.8154ZM35.6962 35.7373V32.7373H7.93465V35.7373V38.7373H35.6962V35.7373ZM3.65297 32.7447L6.54857 31.9602C6.19151 30.6423 6 29.2535 6 27.8154L3 27.8154L0 27.8154C1.19209e-06 29.7888 0.263113 31.7051 0.757375 33.5293L3.65297 32.7447ZM3 27.8154H6C6 19.0808 13.0808 12 21.8154 12V9V6C9.76711 6 0 15.7671 0 27.8154H3ZM7.93465 35.7373V32.7373C7.52208 32.7373 7.16859 32.6166 6.92897 32.4555C6.70552 32.3053 6.59635 32.1365 6.54857 31.9602L3.65297 32.7447L0.757375 33.5293C1.69769 36.9998 4.95489 38.7373 7.93465 38.7373V35.7373ZM39.9779 32.7447L37.0823 31.9602C37.0345 32.1365 36.9253 32.3053 36.7019 32.4555C36.4623 32.6166 36.1088 32.7373 35.6962 32.7373V35.7373V38.7373C38.676 38.7373 41.9332 36.9998 42.8735 33.5293L39.9779 32.7447Z" fill="#E8773A" mask="url(#path-1-inside-1_42_198)"/>
<circle cx="10.1796" cy="28.5582" r="1.733" fill="#E8773A"/>
<circle cx="33.4513" cy="28.5582" r="1.733" fill="#E8773A"/>
<circle cx="11.665" cy="22.6164" r="1.733" fill="#E8773A"/>
<circle cx="31.9658" cy="22.6164" r="1.733" fill="#E8773A"/>
<circle cx="15.6261" cy="17.665" r="1.733" fill="#E8773A"/>
<circle cx="22.063" cy="15.1893" r="1.733" fill="#E8773A"/>
<path d="M21.3202 28.8057L27.7571 17.9126" stroke="#E8773A" stroke-width="3" stroke-linecap="round"/>
</svg>
