<?xml version="1.0" encoding="UTF-8"?>
<svg id="_레이어_1" data-name="레이어 1" xmlns="http://www.w3.org/2000/svg" xmlns:xlink="http://www.w3.org/1999/xlink" viewBox="0 0 1000 1000">
  <defs>
    <style>
      .cls-1 {
        fill: #e8773a;
      }

      .cls-2 {
        fill: #4c3a27;
      }

      .cls-3 {
        fill: none;
      }

      .cls-4 {
        fill: url(#_무제_그라디언트_49);
      }
    </style>
    <linearGradient id="_무제_그라디언트_49" data-name="무제 그라디언트 49" x1="731.14" y1="392.96" x2="731.14" y2="550.55" gradientUnits="userSpaceOnUse">
      <stop offset="0" stop-color="#fff6eb"/>
      <stop offset="1" stop-color="#fff6eb"/>
    </linearGradient>
  </defs>
  <g>
    <polygon class="cls-4" points="825.46 550.55 636.82 550.55 686.82 392.96 775.46 392.96 825.46 550.55"/>
    <path class="cls-2" d="M457.84,485.58v26.05h-43.92v12.87h49.83v26.05h-131v-26.05h49.83v-12.87h-42.4v-86.17h116.16v26.05h-84.81v34.08h86.32Z"/>
    <path class="cls-2" d="M560.22,425.46v123.58h-80.11v-123.58h80.11ZM511.45,522.99h17.42v-71.48h-17.42v71.48ZM606.1,550.55h-31.35v-128.12h31.35v128.12Z"/>
    <polygon class="cls-3" points="656.84 474.68 660.9 474.68 668.25 451.51 656.84 451.51 656.84 474.68"/>
    <polygon class="cls-2" points="656.84 474.68 656.84 451.51 668.25 451.51 676.51 425.46 625.49 425.46 625.49 549.04 637.3 549.04 660.9 474.68 656.84 474.68"/>
    <polygon class="cls-1" points="704.09 522.99 656.84 522.99 656.84 500.73 685.92 500.73 685.92 474.68 660.9 474.68 637.3 549.04 704.09 549.04 704.09 522.99"/>
    <polygon class="cls-1" points="702.57 451.51 702.57 425.46 676.51 425.46 668.25 451.51 702.57 451.51"/>
    <polygon class="cls-1" points="736.49 550.55 720.14 550.55 720.14 493.76 696.67 501.64 696.67 473.01 720.14 465.14 720.14 396.99 736.49 396.99 736.49 550.55"/>
    <polygon class="cls-3" points="814.64 451.51 794.04 451.51 801.39 474.68 814.64 474.68 814.64 451.51"/>
    <polygon class="cls-2" points="814.64 451.51 814.64 474.68 801.39 474.68 809.66 500.73 845.99 500.73 845.99 425.46 785.78 425.46 794.04 451.51 814.64 451.51"/>
    <polygon class="cls-2" points="824.98 549.04 849.02 549.04 849.02 522.99 816.72 522.99 824.98 549.04"/>
    <rect class="cls-2" x="860.53" y="422.43" width="31.35" height="128.12"/>
    <polygon class="cls-1" points="765.87 451.51 794.04 451.51 785.78 425.46 765.87 425.46 765.87 451.51"/>
    <polygon class="cls-1" points="797.22 522.99 797.22 500.73 809.66 500.73 801.39 474.68 765.87 474.68 765.87 549.04 824.98 549.04 816.72 522.99 797.22 522.99"/>
    <path class="cls-2" d="M731.14,346.62c-24.48,0-44.32,19.84-44.32,44.32h88.64c0-24.48-19.84-44.32-44.32-44.32Z"/>
    <circle class="cls-1" cx="590.43" cy="390.95" r="20.81"/>
    <rect class="cls-1" x="739.92" y="396.99" width="4.98" height="153.56"/>
  </g>
  <g>
    <path class="cls-2" d="M196.13,368.52c-48.6,0-88,39.4-88,88h176.01c0-48.6-39.4-88-88-88Z"/>
    <circle class="cls-1" cx="168.83" cy="510.94" r="46.73"/>
    <rect class="cls-2" x="224" y="464.21" width="42.18" height="93.47"/>
  </g>
</svg>