<svg width="44" height="44" viewBox="0 0 44 44" fill="none" xmlns="http://www.w3.org/2000/svg">
<rect x="5.5" y="7.5" width="33" height="30" rx="3.5" stroke="#E8773A" stroke-width="3"/>
<path d="M7 17H38" stroke="#E8773A" stroke-width="3" stroke-linecap="round"/>
<path d="M21.1432 20.4237C21.5319 19.7779 22.4681 19.7779 22.8568 20.4237L24.4148 23.0126C24.5545 23.2446 24.7822 23.4101 25.046 23.4712L27.9896 24.1529C28.724 24.323 29.0133 25.2135 28.5192 25.7827L26.5385 28.0645C26.3609 28.269 26.2739 28.5367 26.2974 28.8065L26.5586 31.8167C26.6238 32.5676 25.8663 33.118 25.1723 32.8239L22.3901 31.6453C22.1408 31.5396 21.8592 31.5396 21.6099 31.6453L18.8277 32.8239C18.1337 33.118 17.3762 32.5676 17.4414 31.8167L17.7026 28.8065C17.726 28.5367 17.6391 28.269 17.4615 28.0645L15.4808 25.7827C14.9867 25.2135 15.276 24.323 16.0104 24.1529L18.954 23.4712C19.2178 23.4101 19.4455 23.2446 19.5852 23.0126L21.1432 20.4237Z" fill="#E8773A"/>
</svg>
